Coordinates
version=1
nRows=30
nColumns=38
inDegrees=no

Units are S.I. units (second, meters, Newtons, ...)
If the header above contains a line with 'inDegrees', this indicates whether rotational values are in degrees (yes) or radians (no).

endheader
time	pelvis_tilt	pelvis_list	pelvis_rotation	pelvis_tx	pelvis_ty	pelvis_tz	hip_flexion_r	hip_adduction_r	hip_rotation_r	knee_angle_r	ankle_angle_r	subtalar_angle_r	mtp_angle_r	hip_flexion_l	hip_adduction_l	hip_rotation_l	knee_angle_l	ankle_angle_l	subtalar_angle_l	mtp_angle_l	lumbar_extension	lumbar_bending	lumbar_rotation	arm_flex_r	arm_add_r	arm_rot_r	elbow_flex_r	pro_sup_r	wrist_flex_r	wrist_dev_r	arm_flex_l	arm_add_l	arm_rot_l	elbow_flex_l	pro_sup_l	wrist_flex_l	wrist_dev_l
0.74	-0.200949	1.2874	-1.26136	1.06606	1.23567	0.956809	0.157688	-0.0703029	-0.163461	1.10946	-0.30151	0	0	-0.348492	-0.0765547	-0.317738	0.173214	-0.18015	0	0	-0.421935	0.11984	-0.22899	-0.204709	-0.293974	-0.106048	0.816282	0.407508	0	0	-0.162813	-0.331716	0.00192744	0.875804	1.43366	0	0
0.75	-0.209696	1.28926	-1.25219	1.06671	1.22716	0.956163	0.172089	-0.0663663	-0.16014	1.07407	-0.289375	0	0	-0.358002	-0.0787325	-0.317672	0.170187	-0.173001	0	0	-0.420997	0.122803	-0.232556	-0.198831	-0.295586	-0.101297	0.815602	0.407694	0	0	-0.156063	-0.331927	-0.00453306	0.884355	1.43227	0	0
0.76	-0.217306	1.29104	-1.24447	1.06724	1.21864	0.955413	0.184396	-0.0617321	-0.154234	1.03429	-0.281076	0	0	-0.367445	-0.0807372	-0.318581	0.168012	-0.166041	0	0	-0.420367	0.125307	-0.235451	-0.193152	-0.297102	-0.0966505	0.815454	0.407384	0	0	-0.148958	-0.332329	-0.00998704	0.892796	1.43192	0	0
0.77	-0.22342	1.29301	-1.23896	1.06762	1.21008	0.954568	0.194811	-0.0567038	-0.145821	0.990168	-0.273971	0	0	-0.376718	-0.0822664	-0.320689	0.166623	-0.15908	0	0	-0.419837	0.126879	-0.237546	-0.187295	-0.298303	-0.0922721	0.815218	0.406433	0	0	-0.14154	-0.332903	-0.0144235	0.900846	1.43154	0	0
0.78	-0.230675	1.29673	-1.23201	1.06791	1.20138	0.953588	0.203844	-0.0511649	-0.13657	0.940387	-0.266919	0	0	-0.38404	-0.0837596	-0.321567	0.165398	-0.152319	0	0	-0.41732	0.128085	-0.239821	-0.180941	-0.299027	-0.0879589	0.813208	0.405286	0	0	-0.133786	-0.333629	-0.0172925	0.907356	1.43174	0	0
0.79	-0.238675	1.30183	-1.22427	1.0681	1.1925	0.952454	0.211426	-0.0462512	-0.12902	0.886514	-0.259132	0	0	-0.38968	-0.0850928	-0.322043	0.164747	-0.144752	0	0	-0.412959	0.128737	-0.242342	-0.173989	-0.299518	-0.0827096	0.809351	0.403973	0	0	-0.126413	-0.3342	-0.0198059	0.912875	1.43319	0	0
0.8	-0.244915	1.30753	-1.21817	1.06829	1.18356	0.951183	0.217	-0.0430678	-0.124254	0.829494	-0.250525	0	0	-0.394663	-0.0857489	-0.321644	0.164734	-0.137482	0	0	-0.40824	0.128821	-0.244755	-0.167614	-0.299878	-0.0780385	0.806179	0.402415	0	0	-0.118758	-0.334644	-0.0214771	0.917742	1.43551	0	0
0.81	-0.248864	1.3134	-1.21412	1.06852	1.17453	0.949762	0.220786	-0.0419184	-0.123094	0.7708	-0.241346	0	0	-0.39948	-0.0856436	-0.321054	0.165202	-0.130185	0	0	-0.403575	0.128429	-0.246989	-0.162648	-0.300785	-0.0735961	0.804939	0.400721	0	0	-0.110921	-0.334738	-0.0223007	0.922394	1.43852	0	0
0.82	-0.252161	1.32048	-1.21136	1.06869	1.16532	0.948113	0.223682	-0.0418012	-0.123695	0.708974	-0.232473	0	0	-0.403412	-0.0844814	-0.320919	0.165493	-0.12247	0	0	-0.39755	0.12709	-0.248434	-0.158801	-0.301995	-0.0691009	0.804478	0.39882	0	0	-0.103442	-0.33452	-0.0224549	0.926795	1.44153	0	0
0.83	-0.253039	1.32744	-1.21067	1.06886	1.15603	0.946341	0.224595	-0.0428211	-0.127482	0.644752	-0.225264	0	0	-0.407493	-0.0827922	-0.320424	0.16634	-0.114499	0	0	-0.391781	0.125309	-0.249846	-0.155905	-0.303333	-0.0650141	0.805202	0.396387	0	0	-0.0960433	-0.334517	-0.0215002	0.931333	1.44436	0	0
0.84	-0.251468	1.33432	-1.21214	1.06895	1.14659	0.944445	0.223395	-0.0443777	-0.134231	0.578298	-0.218575	0	0	-0.41206	-0.0809807	-0.319579	0.167449	-0.106632	0	0	-0.386036	0.123008	-0.251222	-0.154414	-0.304721	-0.0616886	0.807347	0.393535	0	0	-0.0889809	-0.334622	-0.0197199	0.935774	1.44752	0	0
0.85	-0.250857	1.34196	-1.21334	1.06884	1.13684	0.942397	0.220923	-0.0449594	-0.141165	0.507631	-0.214398	0	0	-0.415946	-0.0792354	-0.320599	0.168851	-0.098603	0	0	-0.378976	0.120262	-0.251772	-0.154156	-0.306252	-0.0585242	0.809892	0.389779	0	0	-0.0826754	-0.334318	-0.0179072	0.939719	1.45153	0	0
0.86	-0.250109	1.35037	-1.21515	1.06862	1.12693	0.940212	0.217874	-0.0447691	-0.147963	0.434821	-0.212934	0	0	-0.418882	-0.0771744	-0.322676	0.170803	-0.0912457	0	0	-0.370962	0.116954	-0.251837	-0.154541	-0.307684	-0.0556941	0.812448	0.385676	0	0	-0.0772336	-0.334212	-0.0156126	0.943683	1.45576	0	0
0.87	-0.24895	1.35869	-1.21737	1.06827	1.11689	0.937994	0.213789	-0.0437059	-0.154196	0.361471	-0.215146	0	0	-0.421607	-0.0753537	-0.325012	0.173442	-0.0841503	0	0	-0.362908	0.113476	-0.251726	-0.155254	-0.308684	-0.0535133	0.814798	0.381288	0	0	-0.0723453	-0.334116	-0.0131661	0.947415	1.46036	0	0
0.88	-0.248143	1.3665	-1.2191	1.06779	1.10676	0.935791	0.20836	-0.0422063	-0.158731	0.289934	-0.220429	0	0	-0.424306	-0.0742156	-0.327253	0.177372	-0.0770935	0	0	-0.355267	0.110241	-0.251477	-0.156696	-0.309353	-0.0523817	0.817889	0.376633	0	0	-0.0678066	-0.33315	-0.0117562	0.950847	1.46524	0	0
0.89	-0.249045	1.37347	-1.21882	1.06718	1.09653	0.933661	0.201392	-0.0399617	-0.161548	0.223053	-0.227877	0	0	-0.427233	-0.0742849	-0.328925	0.182537	-0.070295	0	0	-0.348181	0.107652	-0.251137	-0.158553	-0.310065	-0.051065	0.821213	0.372741	0	0	-0.0634384	-0.331435	-0.0110681	0.953662	1.47101	0	0
0.9	-0.248821	1.38172	-1.22055	1.0661	1.08611	0.931271	0.202066	-0.0427799	-0.16708	0.183977	-0.227797	0	0	-0.428387	-0.0742977	-0.331027	0.189528	-0.0639998	0	0	-0.339616	0.10344	-0.249992	-0.161225	-0.309772	-0.0501854	0.824615	0.369655	0	0	-0.0612388	-0.331641	-0.00954569	0.958166	1.47489	0	0
0.91	-0.24951	1.38814	-1.22144	1.065	1.07566	0.929154	0.204486	-0.043714	-0.174156	0.163566	-0.224272	0	0	-0.430974	-0.0751973	-0.332684	0.196812	-0.0597292	0	0	-0.332829	0.100193	-0.24874	-0.163288	-0.309117	-0.0497961	0.827328	0.367384	0	0	-0.0594212	-0.331546	-0.00822154	0.962076	1.4774	0	0
0.92	-0.250077	1.39135	-1.22205	1.06418	1.06522	0.927496	0.207703	-0.0416606	-0.184112	0.160896	-0.221649	0	0	-0.436079	-0.0770476	-0.33441	0.204994	-0.0562702	0	0	-0.329396	0.0988312	-0.247598	-0.16469	-0.309205	-0.0491988	0.829998	0.365347	0	0	-0.0570216	-0.330296	-0.00680116	0.96461	1.48001	0	0
0.93	-0.249607	1.39269	-1.2238	1.06352	1.05478	0.926062	0.219672	-0.0421604	-0.202652	0.195789	-0.210386	0	0	-0.441919	-0.0795892	-0.338059	0.216078	-0.0510375	0	0	-0.328472	0.0986627	-0.245301	-0.167329	-0.310471	-0.0487415	0.835144	0.359924	0	0	-0.0539627	-0.327899	-0.00538771	0.966582	1.48453	0	0
0.94	-0.247551	1.39437	-1.22719	1.06292	1.04415	0.924715	0.240754	-0.0456146	-0.223943	0.262558	-0.18657	0	0	-0.447604	-0.0814604	-0.340178	0.226526	-0.0493743	0	0	-0.326998	0.0981884	-0.243548	-0.16971	-0.311711	-0.0479245	0.8394	0.353605	0	0	-0.0522668	-0.32484	-0.00494141	0.968157	1.4882	0	0
0.95	-0.246721	1.40351	-1.23152	1.06199	1.03319	0.922737	0.27217	-0.0525949	-0.21159	0.355066	-0.175171	0	0	-0.444801	-0.0805675	-0.342067	0.239911	-0.0484328	0	0	-0.316805	0.0942725	-0.241517	-0.172324	-0.312189	-0.0464516	0.840697	0.349273	0	0	-0.0538902	-0.320811	-0.00713432	0.968799	1.49072	0	0
0.96	-0.264667	1.39406	-1.21152	1.06125	1.02183	0.922956	0.270209	-0.043011	-0.239618	0.384378	-0.156215	0	0	-0.460735	-0.0920322	-0.345275	0.249594	-0.0531379	0	0	-0.323933	0.101336	-0.242904	-0.172675	-0.312011	-0.0455468	0.841096	0.347644	0	0	-0.0551766	-0.316907	-0.00974411	0.969274	1.49217	0	0
0.97	-0.275378	1.388	-1.19961	1.06034	1.01024	0.922823	0.270259	-0.0361263	-0.242931	0.426503	-0.145919	0	0	-0.472805	-0.101179	-0.348486	0.261517	-0.0595866	0	0	-0.327746	0.105873	-0.244215	-0.174698	-0.311303	-0.0455959	0.842479	0.346181	0	0	-0.0587066	-0.31323	-0.012831	0.970733	1.49284	0	0
0.98	-0.28436	1.38754	-1.19039	1.05921	0.998413	0.922268	0.275209	-0.0309063	-0.224382	0.479632	-0.153564	0	0	-0.478033	-0.108015	-0.350628	0.276546	-0.0667145	0	0	-0.325463	0.107488	-0.245693	-0.176818	-0.309584	-0.0454817	0.841335	0.345566	0	0	-0.0639493	-0.309693	-0.0156838	0.971244	1.49166	0	0
0.99	-0.29447	1.37885	-1.17475	1.05858	0.986081	0.922836	0.260972	-0.020636	-0.248318	0.474253	-0.135352	0	0	-0.490782	-0.120631	-0.351717	0.29095	-0.0769608	0	0	-0.329714	0.114182	-0.251345	-0.178314	-0.30793	-0.0451671	0.838351	0.345825	0	0	-0.0692874	-0.305845	-0.0175908	0.969678	1.49016	0	0
1	-0.299138	1.37274	-1.16546	1.05779	0.973771	0.923233	0.248193	-0.0121717	-0.2496	0.475655	-0.145481	0	0	-0.499135	-0.1313	-0.35169	0.308754	-0.090187	0	0	-0.332324	0.11883	-0.256721	-0.180369	-0.306308	-0.0445901	0.836244	0.346926	0	0	-0.0761937	-0.302791	-0.0190293	0.968951	1.49007	0	0
1.01	-0.301996	1.36778	-1.15806	1.05702	0.961331	0.923728	0.233696	-0.00435749	-0.24867	0.46705	-0.170323	0	0	-0.504179	-0.141402	-0.350032	0.32971	-0.106127	0	0	-0.333471	0.122678	-0.261942	-0.182561	-0.304908	-0.0436868	0.832862	0.348768	0	0	-0.0836127	-0.299805	-0.019179	0.966572	1.49386	0	0
1.02	-0.303047	1.36223	-1.1529	1.05625	0.948834	0.924497	0.215439	0.00380008	-0.246792	0.451508	-0.203894	0	0	-0.507885	-0.15138	-0.346287	0.353054	-0.127357	0	0	-0.335071	0.126575	-0.266935	-0.184751	-0.303695	-0.0429725	0.829416	0.350749	0	0	-0.0908807	-0.295759	-0.0203588	0.962916	1.49736	0	0
1.03	-0.307434	1.35663	-1.14503	1.05532	0.936202	0.92548	0.197305	0.0125098	-0.247262	0.439734	-0.230461	0	0	-0.509175	-0.162341	-0.340377	0.379776	-0.150948	0	0	-0.336161	0.131019	-0.270923	-0.187391	-0.302243	-0.0431189	0.825455	0.352199	0	0	-0.0976027	-0.290589	-0.0217935	0.957571	1.49913	0	0
